/* XPM */
static char *_bfd3fb0bb4e4fc6b2976466ff7697acb2P90Azya2NsSouY[] = {
/* columns rows colors chars-per-pixel */
"16 16 195 2 ",
"   c None",
".  c #7D6837",
"X  c #7E6A36",
"o  c #8C6F33",
"O  c #8A6F36",
"+  c #836E3E",
"@  c #867132",
"#  c #877336",
"$  c #8F7A37",
"%  c #86713C",
"&  c #8D773C",
"*  c #907735",
"=  c #987E3F",
"-  c #8F7744",
";  c #9D8233",
":  c #A88C36",
">  c #AB8938",
",  c #AD8A38",
"<  c #B99037",
"1  c #BA9137",
"2  c #B9943B",
"3  c #BD963A",
"4  c #B9973C",
"5  c #B9973F",
"6  c #BE973C",
"7  c #BC973E",
"8  c #BE983C",
"9  c #BE993D",
"0  c #BF9A3F",
"q  c #C39D3E",
"w  c #C29E3F",
"e  c #C39F3F",
"r  c #C49E3F",
"t  c #998243",
"y  c #9F854D",
"u  c #A18B47",
"i  c #AD9148",
"p  c #B59742",
"a  c #B09045",
"s  c #B29447",
"d  c #BE9A40",
"f  c #B7944B",
"g  c #B89548",
"h  c #B3994F",
"j  c #B79A4E",
"k  c #A98F52",
"l  c #AF9252",
"z  c #B89957",
"x  c #BF9D56",
"c  c #B79B5B",
"v  c #BB9E5C",
"b  c #BFA148",
"n  c #BEA556",
"m  c #A39371",
"M  c #B2A07A",
"N  c #C29C44",
"B  c #C19F48",
"V  c #C49F4B",
"C  c #C19F55",
"Z  c #C0A343",
"A  c #C7A242",
"S  c #C6A543",
"D  c #C4A046",
"F  c #C7A445",
"G  c #C8A543",
"H  c #C8A444",
"J  c #C9A544",
"K  c #CBA744",
"L  c #CDAA43",
"P  c #C9A846",
"I  c #CCA947",
"U  c #C3A349",
"Y  c #C6A248",
"T  c #C6A34E",
"R  c #C7A54E",
"E  c #C8A34D",
"W  c #CCA74E",
"Q  c #C9A848",
"!  c #C9AB4A",
"~  c #CAA84C",
"^  c #D0AE4A",
"/  c #D2B04E",
"(  c #C4A050",
")  c #C2A155",
"_  c #C0A057",
"`  c #CEAA50",
"'  c #CFAA51",
"]  c #CEA952",
"[  c #CAAC53",
"{  c #CFAF50",
"}  c #CDAB56",
"|  c #C3A359",
" . c #CBAC5B",
".. c #CEAF5E",
"X. c #C8B155",
"o. c #D0B352",
"O. c #D1B451",
"+. c #D7B753",
"@. c #D7B856",
"#. c #D9B851",
"$. c #D9BB51",
"%. c #D9BA54",
"&. c #D2B258",
"*. c #D6B459",
"=. c #D2B35D",
"-. c #D3B55F",
";. c #D6B95C",
":. c #D7BF5D",
">. c #DABD5C",
",. c #C5B264",
"<. c #CAB463",
"1. c #D5B761",
"2. c #D7B864",
"3. c #D8B960",
"4. c #DCBC60",
"5. c #D8BA64",
"6. c #D9BC66",
"7. c #DABE6A",
"8. c #E1BD60",
"9. c #DEC25A",
"0. c #DDC15C",
"q. c #E7CB5D",
"w. c #E7CA5F",
"e. c #D6C360",
"r. c #DECC74",
"t. c #E2C363",
"y. c #E5C162",
"u. c #E0C662",
"i. c #E2C467",
"p. c #E9C364",
"a. c #E1C863",
"s. c #EBCF63",
"d. c #EDCC67",
"f. c #E1C069",
"g. c #E2C069",
"h. c #E0C46B",
"j. c #E4C668",
"k. c #E4CC6A",
"l. c #E4C96F",
"z. c #E5CD6D",
"x. c #EBD063",
"c. c #ECD367",
"v. c #ECD369",
"b. c #EED66B",
"n. c #E8D06F",
"m. c #E7CF75",
"M. c #E7D071",
"N. c #E2DA73",
"B. c #EFD874",
"V. c #E7D67B",
"C. c #EBD578",
"Z. c #ECD678",
"A. c #EEDA7E",
"S. c #F2DB73",
"D. c #F1DE7F",
"F. c #FEE173",
"G. c #FEE576",
"H. c #FEE677",
"J. c #F7E17C",
"K. c #F8ED7A",
"L. c #ADABA9",
"P. c #B9BABD",
"I. c #ECD982",
"U. c #EEDC82",
"Y. c #EFDC84",
"T. c #EFDC88",
"R. c #F0DE85",
"E. c #F1DF88",
"W. c #EFE281",
"Q. c #F6E180",
"!. c #F3E387",
"~. c #F9E080",
"^. c #F9E583",
"/. c #FAE787",
"(. c #F2E18A",
"). c #F2E28B",
"_. c #F3E28B",
"`. c #F4E38C",
"'. c #FAE88A",
"]. c #FAE98A",
"[. c #FAE98C",
"{. c #FAE98D",
"}. c #FBEA8F",
"|. c #F7E791",
" X c #FAEA92",
".X c #FAEA93",
"XX c #FBEB93",
"oX c #FBEA95",
"OX c #FCEC96",
"+X c #FDED98",
"@X c #FDED99",
"#X c #C4C0BA",
"$X c #C0C0C2",
"%X c #C9CACC",
"&X c #D0CFCD",
/* pixels */
"            7.5.5.2.            ",
"        r.m.I.).(.R.l.g.        ",
"      1.U.).).W.!.|.XXOXj.      ",
"    =.C.A.Y.D.V.D.E.OX@X+X4.    ",
"  } k.M.C.Z.g.<.z.;.`.OXXX{.*.  ",
"  &.u.k.n.g.l N.H.8.n  X{.'.t.  ",
"C >.0.a.-.k % K.H.t.i ,.}.].~.] ",
"| +.%.[ y O o e.>.' a t r./.^.] ",
"| ^ P - + X u H.F.p.j & # S.J.` ",
"x o.P Y = . h d.;.s * @ * X.S.T ",
"  R J P L 4 ; : Z $.q.x.c.b.@.  ",
"  ) A A q 0 q S P ! O.9.s.v.B   ",
"    T N 8 , , 2 5 p b o.w.~     ",
"    z Y 7 1 < 3 q G ^ #.Y f     ",
"        ( N d 7 0 F D g         ",
"      &X#XM v  ...c m L.P.$X%X  "
};
