/* XPM */
static char *_bb8c06559184055f6bb16716d7a1b7ftlITJsuHGkgqS1kp[] = {
/* columns rows colors chars-per-pixel */
"64 64 244 2 ",
"   c None",
".  c #3E320C",
"X  c #45350D",
"o  c #4A3B13",
"O  c #513F0F",
"+  c #584617",
"@  c #59440F",
"#  c #634E17",
"$  c #7B4914",
"%  c #6E5619",
"&  c #5B4C21",
"*  c #695625",
"=  c #725E2A",
"-  c #725D33",
";  c #68562C",
":  c #7A6327",
">  c #766233",
",  c #7A6633",
"<  c #7E6A36",
"1  c #7E6A3A",
"2  c #796539",
"3  c #7D631E",
"4  c #885819",
"5  c #834F11",
"6  c #94641A",
"7  c #A76C1A",
"8  c #B3791C",
"9  c #8C5D24",
"0  c #886827",
"q  c #956A28",
"w  c #99742A",
"e  c #816C36",
"r  c #826D3A",
"t  c #886F31",
"y  c #85713C",
"u  c #89743C",
"i  c #8A7338",
"p  c #947A3C",
"a  c #987936",
"s  c #8E702B",
"d  c #AA7826",
"f  c #B27B22",
"g  c #A87A36",
"h  c #B27F36",
"j  c #856F42",
"k  c #8B7744",
"l  c #947D43",
"z  c #957D49",
"x  c #857C70",
"c  c #A87F41",
"v  c #9E823C",
"b  c #968136",
"n  c #B98529",
"m  c #A4853A",
"M  c #AD8C3B",
"N  c #A68537",
"B  c #BA8D34",
"V  c #B18D3A",
"C  c #B78A36",
"Z  c #BA9236",
"A  c #B5933C",
"S  c #BB943A",
"D  c #BE993E",
"F  c #B7983A",
"G  c #AC8836",
"H  c #C39C3D",
"J  c #C39537",
"K  c #C18D32",
"L  c #C5A13E",
"P  c #CAA33E",
"I  c #D3A43D",
"U  c #9C8342",
"Y  c #99834A",
"T  c #95814D",
"R  c #A48A44",
"E  c #A38B4B",
"W  c #A68746",
"Q  c #AD924C",
"!  c #A99247",
"~  c #B29344",
"^  c #BB9A41",
"/  c #B3954C",
"(  c #BC9B4B",
")  c #B89748",
"_  c #A58B54",
"`  c #AC9353",
"'  c #B39552",
"]  c #BC9D52",
"[  c #BA9D5A",
"{  c #B49A56",
"}  c #B58D48",
"|  c #BDA348",
" . c #BCA255",
".. c #AFA258",
"X. c #968565",
"o. c #918877",
"O. c #B59B61",
"+. c #AE9C72",
"@. c #BAA668",
"#. c #BBA575",
"$. c #C39D41",
"%. c #C49B49",
"&. c #C39D52",
"*. c #C5A242",
"=. c #CAA544",
"-. c #CDA945",
";. c #C4A44D",
":. c #CDAB4A",
">. c #C9A64B",
",. c #D1AC44",
"<. c #D2AD4B",
"1. c #D2A647",
"2. c #D3B146",
"3. c #D4B24C",
"4. c #D9B64C",
"5. c #DABA4E",
"6. c #D8B146",
"7. c #C3A353",
"8. c #C9A654",
"9. c #CBAB56",
"0. c #C3A45C",
"q. c #CCAD5B",
"w. c #C5A956",
"e. c #D3AE53",
"r. c #CEB35C",
"t. c #CAB153",
"y. c #D5B553",
"u. c #DAB553",
"i. c #DBBC54",
"p. c #D4B45C",
"a. c #D9B65C",
"s. c #D6B95A",
"d. c #DBBC5B",
"f. c #D5B956",
"g. c #CFB24F",
"h. c #E2BC56",
"j. c #CAAD63",
"k. c #C4A764",
"l. c #CBB466",
"z. c #D4B363",
"x. c #DCBD62",
"c. c #D6B967",
"v. c #CBB47A",
"b. c #D3BA74",
"n. c #C7AD73",
"m. c #E2BE62",
"M. c #E3BD6B",
"N. c #DDC25D",
"B. c #DEC055",
"V. c #E2C355",
"C. c #E3C45B",
"Z. c #E6C95C",
"A. c #E8CC5F",
"S. c #EBC55F",
"D. c #DDC363",
"F. c #DBC66B",
"G. c #DBC679",
"H. c #DED16B",
"J. c #E2C462",
"K. c #EAC564",
"L. c #E2CA65",
"P. c #EACD63",
"I. c #E4CC6C",
"U. c #EAC86C",
"Y. c #F5CE69",
"T. c #F4CC68",
"R. c #ECD165",
"E. c #EDD46A",
"W. c #E6D36E",
"Q. c #FBD36B",
"!. c #F0D86E",
"~. c #FED96F",
"^. c #F3D16C",
"/. c #E4CD72",
"(. c #E5CA77",
"). c #F3CB73",
"_. c #E6D173",
"`. c #EAD374",
"'. c #EBD57A",
"]. c #EDD97D",
"[. c #E6D57B",
"{. c #F3DC74",
"}. c #FEDD71",
"|. c #F4DE7A",
" X c #FDD878",
".X c #FEE375",
"XX c #F7E17B",
"oX c #FAE37E",
"OX c #FEEC7A",
"+X c #F6E776",
"@X c #FEF37D",
"#X c #EDE475",
"$X c #959696",
"%X c #8B8C8E",
"&X c #A39C8F",
"*X c #ADA490",
"=X c #9C9DA2",
"-X c #A6A7AA",
";X c #ACADB1",
":X c #AEB0B4",
">X c #B6B7B8",
",X c #9FA3A6",
"<X c #C8B586",
"1X c #CAB78A",
"2X c #D9C790",
"3X c #E1CD81",
"4X c #E1CF8A",
"5X c #EEDC82",
"6X c #E7D688",
"7X c #F0DE85",
"8X c #F1DF89",
"9X c #F3E185",
"0X c #FAE584",
"qX c #FDE985",
"wX c #F2E18A",
"eX c #F3E38C",
"rX c #F5E58E",
"tX c #F3E28B",
"yX c #FAE789",
"uX c #FAE98C",
"iX c #F2EE86",
"pX c #FEF582",
"aX c #FEFA83",
"sX c #FDF38B",
"dX c #FDFB8A",
"fX c #F7E790",
"gX c #F7E690",
"hX c #F9E992",
"jX c #FAEA95",
"kX c #FBEB94",
"lX c #FDED99",
"zX c #FDED9A",
"xX c #FEFD93",
"cX c #ECE88B",
"vX c #C3C1BF",
"bX c #BEBFC1",
"nX c #BFC0C2",
"mX c #CDCCCA",
"MX c #C6C6C6",
"NX c #D2D1CE",
"BX c #CECFD1",
"VX c #D4D4D3",
"CX c #D9D9D7",
"ZX c #D0CFCD",
/* pixels */
"                                                                                                                                ",
"                                                      4X4X4X6X6X4X6X6X4X4X                                                      ",
"                                              G.3X'.[.[./.x.x.d.x.x.x./.'.'.8X4X3Xb.                                            ",
"                                        G.G.`./.x.<.$.$.$.1.:.9.9.1.H J B B J e.I.5X5X3X                                        ",
"                                    G././.J.<.1.e.z.(.].5X8XwXwXrX8XrX7X'./.x.$.n n 1.`.7X3X                                    ",
"                                c.U./.m.h.d./.6X8X8XwXtXwXwXwXwXrX8XtXtXrXrXgXuX8XL.=.K =._.7X(.                                ",
"                              F._.m.u.I.[.8XwXwX8XtX8XwXwXwXwXeXrXtX8XtXrXrXgXgXgXkXkX'.h.I ,.`.6Xb.                            ",
"                          l.L.x.%.x.[.8X8X8X8XwX8XtXtXtXtXeXeXeXrXtXtXrXrXrXgXgXgXgXgXkXkX].h.I h.tXG.                          ",
"                        z.L.%.%._.5X7X7X7XwX8X8XwXwXeXeXeXrXiX#X9XtXgXgXrXgXfXfXkXfXkXfXkXlXjXW.I I ].(.                        ",
"                      r.F.g %.'.7X5X7X7X5XwX8X8XwXeXeXeXrXcX#X[.+X8XrXrXgXgXfXfXfXkXfXkXkXlXlXkXyX6.n L.'.                      ",
"                    p.F.w q.].5X].5X5X7X5XwXwXwXwXeXeXtXeXoXF.sXpXW.rXfXgXfXkXgXjXkXjXjXlXkXlXzXlXkX4.8 d.`.                    ",
"                  z.D.q z.'.].'.].5X].7XwXwX8XwXtXeXtXtX#XOXl.xXsXoXG.fXgXjXgXkXjXkXjXjXlXlXlXzXlXlXkXd.7 d.'.                  ",
"                z.m.w x.].'.].].].].5X7X7X7XwX7XwXwXwX]..XqX@.xXsXqX).G.jXjXjXjXjXjXjXlXlXlXzXzXzXzXzXlXi.7 J.[.                ",
"              l.D.g q.'.'.`.`.].].].5X].7X7X7XwXwXwX].#X0X|.@.dXsXqX Xm.3XjXjXjXjXjXjXlXkXlXlXlXzXzXzXzXkX4.7 `.(.              ",
"            v.e.) &.`.`.`.'.`.'.].].].5X7X5X7X7XwX5X!.oXqXj.G.xXsXqX7XQ.0.rXkXjXlXlXjXlXjXlXlXlXlXlXzXlXkXyXP d 9Xb.            ",
"            9.x.C `.`.I.`.`.`.'.'.].].].5X5X5X5X5XL..XoX XY cXxXsXqX0X XK.{ kXgXjXjXlXkXkXlXkXlXkXkXlXzXkXkX|.n H tX            ",
"          j.D.h L.W.W.I.W.`.).'.`.].|.'.].].7X7XI.}. X X).j xXxXsXqXqX XY.:.k.jXhXjXkXjXlXlXkXkXkXkXkXkXsXjXkXR.7 L.3X          ",
"          <.%.9.W.I.I.W.I._._.`.'.`.'.].].7X7X'.E. X X).c.k xXxXdXpXoX XY.C.V G.kXkXkXjXlXlXkXkXkXlXlXkXkXuXuXyX,.f wXb.        ",
"        j.m.h I.L.L.I.I.I.W.I.`.`.'.`.].'.].I.L.j.{ ' &.` _ j.w.] ) ) / { w.c.F.eXfXkXhXkXjXlXkXkXkXuXuXuXuXuXuX].f f.3X        ",
"        <.} p.L.D.L.L.H.I._._._.`.`.'.`.'./.P.Q.).U.z.%.t %.9.r.D.L.L.L.T.J.u.D v uXuXkXkXkXjXkXuXkXkXuXuXuXkXkXqX4.8 wX        ",
"      l.d.g I.J.I.N.I.R.I.W.I.W.`.`.`.'.`.C.Q.).U.z.k.' ; iXdXdXpX@X.X}.Y.K.a.>.b  .uXkXuXjXjXkXuXkXuXuXkXkXfXyXyX{.8 i.G.      ",
"      9.&.7.L.J.N.D.D.L.L.L.W.I._.`.`.`.N.^.(.M.l. .{ k 1 aXaX@X@X+X.X~.T.K.a.9.( s F.kXuXkXkXkXkXuXyXuXuXyXyXqXyXyX,.n tX      ",
"    1X4.g /.N.N.L.N.D.L.L.L.I.I.I.`.`.x.Y.M.c.j. .{ E > E dX@X@X@X.X.X~.Y.K.d.t. .M 0 wXfXkXkXkXuXuXkXuXyXuXqXyXyXqXP.7 '.b.    ",
"    j.z.g L.N.N.N.N.N.D.L.L.I.I.I.E.J.T.M.M.j.[ ' Y Y - ..dX@X@XOXOX.X~.Y.K.d.9. .! a b kXkXjXkXkXuXuXiXyXyXyXuXyXyXoXn 3.3X    ",
"    q.&.0.N.N.N.i.N.D.D.L.L.L.I.I.L.C.M.z.k.[ ` c l y 2 D.aX@X@X@XOX}.}.Y.K.d.q.7./ m 0 ..kXkXuXuXkXuXkXuXuXqXuXyXuXyX,.n 7X    ",
"    p.h c.C.d.d.d.N.N.N.D.L.L.P.L.f.m.z.k.{ _ W z k < 1 H.@X@X@XOX.X.X~.Y.K.m.e.w./ R p : F.kXkXkXuXuXuXyXuXyXuXyXyXyXP.7 9X    ",
"  b.p.q /.d.i.i.B.N.N.N.L.N.D.L.u.h.q.0.' _ z l u y > r +X@X@X@XOXOX}.}.Q.K.x.q.7./ ! U t : 6XkXkXkXuXuXiXyXyXuXyXyXyX{.7 _.c.  ",
"  v.x.a J.s.i.f.B.N.N.N.N.C.L.D.j.k.O.` _ z l u y < > l @X@X@X@X@XOX.X}.Q.U.m.a.w.{ Q U i % a cXkXkXkXuXyXyXuXuXyXqXyX0X8 d.G.  ",
"  b.q.} d.u.y.i.f.f.i.N.N.N.N.>.8.{ _ c c l u y y < > ` @X@XaX@XpXpXOXOX.X^.m.e.( ~ R ! Q { l.5XuXuXuXuXyXyXuXyX0XyX0XyXJ P G.  ",
"  k.q.] d.y.4.y.i.i.i.f.i.N.>.8.[ _ E z u q q 0 0 , T ..#XH.D.r.| A N w 6 4 4 6 q d g N U Y u 3 l.uXuXuXuXyXyXqX0X0X9X0XI K (.  ",
"  0.8.0.f.4.y.u.f.f.i.i.i.>.;.' _ Y z k y r r 0 4 4 5 5 4 $ 4 0 a M ) ;.p.d.d.x.r. ./ Y U y < = 0 H.uXyXyXyXyXyX0X0X0X0X3.f 6X  ",
"  &.&.0.f.y.3.y.y.4.y.i.:.;.` E z z k j r r r e 1 > i | #X@XaXaXaXpXOX.X~.Y.K.a.q.| Q U v u i , * v `.qX0X0X0XoXoXXXoX0X4.f '.  ",
"  ] &.0.y.y.y.3.y.3.3.:.| _ _ z k k y r r e < < < , z L.OXOXOXOXOX.X.X~.Q.T.m.p.9.] Q R U p u < > % | ].9XoXoXoXXXXXXX0X4.d '.  ",
"  &.( 0.p.3.:.3.3.3.g.F z z k k k j r 1 < < e < , < k E..X.XOXOXOX.X}.~.Q.U.m.a.9.( Q R Y p u e , = : t.XXXXXXXXXXXXoXXX<.f [.  ",
"  k.&.[ 3.:.<.<.:.3.D 0 r j j j j r r 1 1 < < < , u U Q.~..X.X.X.X.X}.~.Y.T.m.a.9. ./ R v p y e < > * b B.#XXXXXXXXXXXoX=.n (.  ",
"  0.w.' f.:.:.:.:.:.$.y.z - > 1 1 1 r < < < < , , E i ~.~..X.X.X.X.X}.~.Y.K.m.a.9. ./ E U u u 1 < , ; * ) N.{.|.|.oXXX|.H J G.  ",
"  n.9.} i.9.:.:.:.:.:.H t.s.Y - - 2 j 2 < < < < , ! Y !.~.~..X.X.X.X}.~.Q.T.m.a.t. .Q R U b u < , > = ; : | E.{.{.|.|.|.n 1.b.  ",
"  v.q.g D.:.-.-.:.<.-.:.:.D ;.p.E - 2 2 1 1 < 2 u T ) Q.Q.~..X.X.X}.}.~.Q.T.m.p.w.| ! v y , = * * & + @ @ @ | !.XXXX|.!.f C.b.  ",
"    ;.g F.:.>.-.-.-.-.-.:.2.:.^ ^ w.E - > 1 < , p T t.T.Q.~.}.}.}.}.^.K.p.' m t = * + X @ X @ @ # % s N ! t.W.#X{.|.{.R.7 !.0.  ",
"    ( ] l.:.-.>.-.-.-.-.-.-.3.2.,.$.V ) v > > > E k w.s.r.>.) v i * + o X X X O @ # : b M | t.N.R.E.!.#XE.!.#X!.{.{.{.i.7 ].    ",
"     .q.&.e.>.>.-.=.=.-.-.-.:.:.:.:.2.L G N p = ..& & + . . . X O # % s N F L g.B.A.R.R.R.R.E.E.E.E.E.E.!.!.E.{.!.{.!.J B F.    ",
"    v.q.g F.:.=.*.=.>.=.=.=.-.-.-.-.2.I 2.*.N 0 # @ % 3 s N F L 3.5.V.V.Z.Z.B.Z.Z.Z.R.A.A.R.R.R.R.R.E.E.R.!.E.!.!.E.!.6 f.z.    ",
"      ) } c.:.*.=.*.-.>.=.=.=.=.-.-.2.-.P 2.I L F =.2.5.5.5.5.B.5.V.5.V.V.V.B.Z.Z.Z.A.A.A.R.R.R.R.R.R.R.E.E.!.!.E.E.5.4 `.{     ",
"      O.q./ y.*.*.*.*.=.=.=.=.=.=.P P ,.P 2.2.P 2.2.2.2.2.5.2.B.5.5.B.5.B.V.V.B.B.Z.Z.A.A.Z.A.R.R.R.R.E.R.E.E.E.E.E.G n I.      ",
"      <X7.g F.>.*.H =.=.=.=.*.=.*.P P =.P P P 2.2.I 2.2.2.2.2.4.5.5.4.5.B.B.B.B.Z.V.Z.Z.Z.A.A.A.R.R.R.A.E.E.E.`.R.C.$ J.j.      ",
"        / 0.[ e.*.$.=.*.=.*.*.=.*.P P L P P P P P P P I 2.2.2.3.6.6.4.4.5.4.5.B.V.V.Z.N.Z.A.A.A.A.R.R.R.R.R.R.^.P.N d I.        ",
"        n.8.g F.>.*.*.=.*.*.P H *.H *.A Z L P L V H D P P | *.D ~ M | 2.v 2.:.:.B.~ B.B.Z.t.N.A.A.A.R.R.R.E.R.E.N.$ i.w.        ",
"          ' j.} i.*.=.=.*.*.*.*.H P H v b b N v m M v F P v ~ m m =.v 2.v | A U 2.b | u B.< Z.A.A.R.A.R.E.R.W.R.w d D.          ",
"          1X) ) l.<.=.*.$.*.*.H H H H V M H a N p G v D H v P S M =.v v p *.~ R 5.R 3.v u U i.Z.A.A.R.R.P.I.E.*.$ J.'           ",
"            O.p.g (.-.H H *.*.L H H H V N N m m G V a N V p P A M =.v -.v | M U >.u g.R t.;.w.C.A.A.A.P.P.R.h.$ =.w.            ",
"              / z.g D.$.L *.*.D H H H M p V Z G a N N N Z N H S m =.M *.m ^ F ^ m ) 3.( i.f.;.Z.C.P.P.P.P.V.4 N s.              ",
"              v.) &.c x.*.D D D D J D J S B Z Z Z Z Z H H H H H H L L =.-.-.-.2.3.3.5.5.5.B.V.V.C.C.N.V.m.w q i.O.              ",
"                n.%.h W s.*.D S D H S S S Z B Z Z B Z Z Z D Z J L L *.H L =.:.:.2.3.3.5.i.i.V.V.C.C.B.C.g 4 y.k.                ",
"                  #.( W W x.$.D D S S Z Z Z A B Z B B B Z S D H D *.H L L =.=.-.:.:.:.3.y.y.i.i.N.h.h.g 4 :.k.                  ",
"                    k.&.} c D.;.D D S S S B Z B V Z Z S Z S H S D J H *.*.=.L =.-.:.2.g.3.3.u.u.i.i.q 9 >.k.                    ",
"                      #.&.8.C x.:.D S S S S S V Z Z A S Z D S D D D *.*.*.*.*.=.=.:.:.:.e.3.3.u.<.4 a >.k.                      ",
"                        #.( p.C 8.m.%.H S Z B S A Z S S S S S S S D $.H $.$.*.*.=.>.:.:.3.y.s.V $ ^ w.v.                        ",
"                            [ 9.&.C x.a.;.S S S S D V Z ~ S S S S D D $.$.H *.=.=.=.:.<.f.;.9 w >.n.1X                          ",
"                              O.( q.%.C q.a.>.$.^ S D S S $.S ^ S D ^ $.$.*.*.;.:.e.a.;.q 9 ) e.v.                              ",
"                                  _ %.q.%.h %.x.d.e.;.$.H %.$.$.D $.$.$.;.>.3.f.e.V 9 q ) 8.[ *X                                ",
"                              CXCXNX*X_ / 9.&.%.S <.m.x.m.x.d.s.s.a.x.x.i.<.$.h g } ;.] _ &XMXBXBXBXBXVXBXBXVXBXCX              ",
"          CXCXCXCXVXVXNXBXZXmXmXmXMXMXvX&XX.W ' 8.q.a.u.u.6.<.e.e.<.<.<.e.e.>.8. .Y X.o.-X;X;X:X:X:X>X>X>XbXbXbXbXnXmXBXCX      ",
"                CXNXVXNXNXZXmXMXMXMXMXvX>X>X*Xo.x E W } >.8.9.9.9.9.w.7.( / _ x x %X$X=X=X,X-X-X-X;X;X:X>X>XbXbXMXMXmXBX        ",
"                                            >X;X*X%X%Xx o.o.+.#.<X<X#.*X&X$X%X%X=X,X-X:X                                        "
};
