/* XPM */
static char *_f965a078c5a4cbb85165470aed1474b01NRkEuf22oVLviU[] = {
/* columns rows colors chars-per-pixel */
"32 32 202 2 ",
"   c None",
".  c #66511C",
"X  c #6E591E",
"o  c #6A5725",
"O  c #735E2B",
"+  c #73612A",
"@  c #776222",
"#  c #796532",
"$  c #7D6935",
"%  c #7F6A3A",
"&  c #7B6639",
"*  c #825F25",
"=  c #816B2A",
"-  c #816924",
";  c #946E2A",
":  c #8D722E",
">  c #987E2F",
",  c #816B34",
"<  c #826D3B",
"1  c #8C6E31",
"2  c #85713A",
"3  c #8A743B",
"4  c #937C3F",
"5  c #967C38",
"6  c #A0762E",
"7  c #A57C31",
"8  c #8A7443",
"9  c #8F7C41",
"0  c #947D43",
"q  c #957D4A",
"w  c #9B863D",
"e  c #AA8235",
"r  c #A3853C",
"t  c #A88339",
"y  c #AB8B3B",
"u  c #AC8836",
"i  c #B48C35",
"p  c #B28C3A",
"a  c #B88F34",
"s  c #AF943B",
"d  c #B99136",
"f  c #B5933C",
"g  c #BB943A",
"h  c #BD993E",
"j  c #C39637",
"k  c #C39C3D",
"l  c #C6993A",
"z  c #CBA43F",
"x  c #C7A03F",
"c  c #99844B",
"v  c #958345",
"b  c #9E8858",
"n  c #A68B43",
"m  c #AA8C44",
"M  c #A78C4A",
"N  c #A98E48",
"B  c #A0854B",
"V  c #B08B43",
"C  c #AA9244",
"Z  c #AD9249",
"A  c #B39542",
"S  c #BC9B43",
"D  c #BA954A",
"F  c #BB9B4B",
"G  c #B69645",
"H  c #A48B51",
"J  c #AD9251",
"K  c #AF9A54",
"L  c #B29453",
"P  c #BB9C54",
"I  c #B49A5C",
"U  c #BDA14C",
"Y  c #BDA354",
"T  c #BEA15E",
"R  c #BAAC5E",
"E  c #968A71",
"W  c #AA9667",
"Q  c #B59C64",
"!  c #BFA363",
"~  c #BEA669",
"^  c #C29D43",
"/  c #C29C4C",
"(  c #C29F56",
")  c #C5A243",
"_  c #C9A543",
"`  c #CDA945",
"'  c #C3A44C",
"]  c #C9A44D",
"[  c #CDAC4B",
"{  c #C7A947",
"}  c #D0AB42",
"|  c #D1AC4A",
" . c #D3B24D",
".. c #D8B64A",
"X. c #DCBB4E",
"o. c #D3B045",
"O. c #C4A353",
"+. c #C8A651",
"@. c #C5AA53",
"#. c #CDAC55",
"$. c #C3A55B",
"%. c #CBAD5A",
"&. c #D2AE54",
"*. c #CEB159",
"=. c #D5B453",
"-. c #DAB554",
";. c #DBBC54",
":. c #D4B45B",
">. c #DAB75C",
",. c #D5BC5E",
"<. c #DCBB5C",
"1. c #C2A663",
"2. c #CAAB62",
"3. c #C8AD66",
"4. c #CCB068",
"5. c #D2B365",
"6. c #DCBC62",
"7. c #D4BB69",
"8. c #D9B768",
"9. c #DDC15D",
"0. c #E3C356",
"q. c #E3C55C",
"w. c #E6C95C",
"e. c #E8CC5F",
"r. c #DFC561",
"t. c #DCC26B",
"y. c #D8CA68",
"u. c #DCC474",
"i. c #DCC97A",
"p. c #DAD27B",
"a. c #E1C462",
"s. c #E8C362",
"d. c #E2C966",
"f. c #EBCD64",
"g. c #E2C76E",
"h. c #E5CD6C",
"j. c #EAC86A",
"k. c #F4CD69",
"l. c #F0CB67",
"z. c #ECD265",
"x. c #ECD36A",
"c. c #F0D86F",
"v. c #FEDA6F",
"b. c #E4CB73",
"n. c #ECCA71",
"m. c #E2CD7B",
"M. c #E0C770",
"N. c #E7D071",
"B. c #EAD375",
"V. c #EBD678",
"C. c #EDDA7D",
"Z. c #E7DD75",
"A. c #F2DB74",
"S. c #FEDE72",
"D. c #F6DF78",
"F. c #FCD77A",
"G. c #EEE379",
"H. c #FEE375",
"J. c #F7E37D",
"K. c #FBE37C",
"L. c #FEEA7A",
"P. c #F2EA7A",
"I. c #FDF27D",
"U. c #8F8D8B",
"Y. c #A49F95",
"T. c #B7AD9C",
"R. c #9EA0A4",
"E. c #A4A4A9",
"W. c #ADADB2",
"Q. c #BABABB",
"!. c #B3B3B7",
"~. c #E3CF81",
"^. c #EFDD83",
"/. c #EFDE89",
"(. c #F0DF87",
"). c #F1DF89",
"_. c #F4E385",
"`. c #F9E584",
"'. c #F3E28C",
"]. c #FAE789",
"[. c #FAEA8D",
"{. c #FAE98A",
"}. c #F0EC8A",
"|. c #FEF786",
" X c #F7E790",
".X c #F9E992",
"XX c #FBEA91",
"oX c #FBEB94",
"OX c #FBEB96",
"+X c #FCEC97",
"@X c #FCEC95",
"#X c #FCEB94",
"$X c #FDEC98",
"%X c #FDEE9B",
"&X c #FEFD92",
"*X c #BEBFC1",
"=X c #C3C3C5",
"-X c #CDCDCC",
";X c #C8C9C9",
":X c #D0CFCD",
">X c #D2D1CF",
",X c #D4D3D1",
/* pixels */
"                                                                ",
"                      m.t.>.:.:.=.&.&.6.m.                      ",
"                u.g.6.r.M.^.(.(.'.'.^.b.&.| g.m.                ",
"              t.6.b.^.).'.'.'.'.'.'.'. X.X[.j.-.b.              ",
"            :.+.C.^.).(.).'.'.G._. X X X.X.XOX'.;.<.            ",
"          @.%.C.C.^.(.'.'.'._.C._.(..X.X.XoX$X$X$X-.&.          ",
"        #.%.V.C.C.^.(.).'.G.`.p.{.n. XoXOX$X$X%X$X$X-.:.        ",
"      :.+.b.B.V.C.C.^.^.C.D.8.}.|.F.7..XOX$XOX$X$X$X#X^ b.      ",
"    5./ x.h.N.V.V.C.C.^.x.F.I &X|.D.s.7.oXoX$XoX@X@XXX`.j ~.    ",
"    #.:.y.h.h.N.B.V.B.x.8.O.m %.%.%.:.:.m.XXoXoXXXXX[.[.<.6.    ",
"    / d.r.d.h.h.n.V.j.n.5.J R |.L.H.j.&.y '.XXXXXX{.[.].`.l ~.  ",
"  5.( q.9.r.d.h.N.a.j.2.K 3 y.I.L.S.x.:.G N XXoX[.[.{.].`.| t.  ",
"  / 5.9.9.9.d.d.r.6.1.J 0 < Z.I.L.S.l.>.P 5 $.#XXX[.{.].{.x.&.  ",
"  D q.;.;.9.r.r.:.T H 0 < < I.I.L.H.l.6.P n = p.XXXX].{.].`.l   ",
"  ( ;.=.;.;.9.#.I B 5 1 , v P.Z.r.:.^ p u r M K ^.{.{.].`.`.l i.",
"$.$.=.=.-.;.[ K c 8 < , * ; S @.,.r.s.6.O.N 4 # w _.`.`.`.`.l m.",
"Y $.=.|  .[ M q 8 < % , $ Y L.L.K.S.l.<.O.Z 4 < O U J.J.J.K.j u.",
"  P  .[ | A < < 8 % $ $ 3 @.S.H.H.v.k.6.O.Z w < $ + ,.H.J.J.j u.",
"  D =.[ [ ` [ M & & & $ 9 :.v.H.H.S.k.<.@.n 3 + o o @ y.D.A.l   ",
"  D :.{ [ ` ` [ _ v < # v :.q.,.U r = O . X = w C @.,.c.A.z.]   ",
"  2.O.{ _ _ ` ` } ` g : + . X @ > s { X.w.e.z.z.z.x.x.c.c.[ #.  ",
"  1.( [ ) _ _ ` ` ` } ` z ....X.;.;.0.0.w.e.e.z.z.z.x.c.x.i t.  ",
"    D #.^ _ _ _ z z z z ` z o.......;.9.0.0.e.e.z.z.z.x.;.G     ",
"    ! ( ` _ ) ) k g y f f f h f f ) A G U { U e.e.f.x.x.7 *.    ",
"      P #._ ^ ) ^ g y r u t y h A y C y G S Z ;.e.z.f.^ S       ",
"        F +.^ k j g y a u p g h h x S ) U [ 9.;.w.w.=.e $.      ",
"        ! V ] k j g d d a a g j x x _ ` o. .;.;.0.| 6 2.        ",
"          ! D #.^ g g d d g g g h x ) ) [ |  .-./ 7 $.          ",
"            Q O.+.+.h g g d g g h k ) ) _ [ &.e V 4.            ",
"                P / / | ] ^ S S h h ) [ ] p 7 !                 ",
"          ,X>X:X-XT.Q D ] >.>.=.=.:.=.^ m W Y.*X*X=X=X=X;X-X    ",
"            :X-X;X=XQ.Y.E b Q 1.3.~ W E U.R.E.W.W.!.Q.          "
};
